<?xml version="1.0" standalone="no"?>
<!DOCTYPE svg PUBLIC "-//W3C//DTD SVG 20010904//EN"
 "http://www.w3.org/TR/2001/REC-SVG-20010904/DTD/svg10.dtd">
<svg version="1.0" xmlns="http://www.w3.org/2000/svg"
 width="512.000000pt" height="512.000000pt" viewBox="0 0 512.000000 512.000000"
 preserveAspectRatio="xMidYMid meet">
<metadata>
Created by potrace 1.11, written by Peter Selinger 2001-2013
</metadata>
<g transform="translate(0.000000,512.000000) scale(0.100000,-0.100000)"
fill="#000000" stroke="none">
<path d="M1961 4520 c-374 -48 -709 -224 -1001 -526 -202 -209 -372 -476 -421
-660 -33 -124 -37 -343 -10 -509 66 -401 201 -784 507 -1437 95 -204 137 -269
226 -354 124 -119 287 -205 510 -269 249 -72 421 -93 1032 -125 110 -6 234
-18 275 -26 42 -7 90 -14 107 -14 48 0 132 48 199 114 169 167 301 388 770
1281 66 127 203 368 265 470 113 184 167 336 177 495 13 225 -72 467 -245 700
-77 103 -266 296 -387 393 -298 241 -511 326 -1007 407 -288 47 -839 80 -997
60z m1344 -827 c68 -36 80 -55 80 -137 l0 -71 -350 -560 c-280 -449 -349 -566
-348 -590 2 -16 9 -88 18 -160 35 -295 30 -545 -12 -633 -35 -74 -141 -111
-253 -88 -38 8 -69 21 -77 32 -20 27 -16 106 13 260 40 209 27 365 -52 635
-34 117 -110 327 -124 342 -4 5 -45 -10 -91 -34 -151 -76 -242 -96 -285 -65
-29 22 -24 137 10 241 148 436 535 739 1071 835 150 27 341 23 400 -7z"/>
</g>
</svg>
